<svg xmlns="http://www.w3.org/2000/svg" width="313" height="73" fill="none" viewBox="0 0 313 73">
  <path fill="#57ADE1" d="M84 0h149v73H84z"/>
  <path fill="#fff" d="M112.881 49.32c-1.472 0-2.806-.17-4-.512a10.73 10.73 0 0 1-3.136-1.536 13.084 13.084 0 0 1-2.464-2.4l3.296-3.744c1.066 1.43 2.133 2.39 3.2 2.88a8.09 8.09 0 0 0 3.36.736 5.16 5.16 0 0 0 1.568-.224c.469-.15.832-.363 1.088-.64.256-.299.384-.661.384-1.088 0-.32-.086-.608-.256-.864a2.132 2.132 0 0 0-.64-.672 4.803 4.803 0 0 0-.992-.512c-.384-.17-.79-.31-1.216-.416a13.093 13.093 0 0 0-1.312-.32c-1.238-.277-2.315-.619-3.232-1.024-.918-.405-1.686-.896-2.304-1.472a5.947 5.947 0 0 1-1.344-2.016c-.299-.768-.448-1.621-.448-2.56 0-1.003.224-1.92.672-2.752a7 7 0 0 1 1.856-2.176 8.444 8.444 0 0 1 2.72-1.408 10.05 10.05 0 0 1 3.2-.512c1.472 0 2.73.16 3.776.48 1.066.299 1.973.736 2.72 1.312a8.25 8.25 0 0 1 1.952 2.08l-3.36 3.232a6.857 6.857 0 0 0-1.472-1.376 6.086 6.086 0 0 0-1.664-.832 5.632 5.632 0 0 0-1.792-.288c-.64 0-1.195.085-1.664.256-.448.15-.8.373-1.056.672a1.453 1.453 0 0 0-.384 1.024c0 .363.106.672.32.928.213.256.501.49.864.704.362.192.778.363 1.248.512.469.128.96.235 1.472.32 1.173.235 2.229.544 3.168.928.96.384 1.781.853 2.464 1.408a5.496 5.496 0 0 1 1.6 1.984c.384.747.576 1.621.576 2.624 0 1.557-.384 2.88-1.152 3.968-.747 1.067-1.782 1.888-3.104 2.464-1.302.555-2.806.832-4.512.832Zm20.409 0c-1.877 0-3.509-.373-4.896-1.12-1.387-.768-2.464-1.803-3.232-3.104-.768-1.323-1.152-2.827-1.152-4.512 0-1.301.213-2.496.64-3.584a8.37 8.37 0 0 1 1.792-2.816 7.725 7.725 0 0 1 2.72-1.856c1.067-.448 2.229-.672 3.488-.672 1.195 0 2.283.213 3.264.64a7.624 7.624 0 0 1 2.592 1.792 7.86 7.86 0 0 1 1.664 2.72c.384 1.045.555 2.187.512 3.424l-.032 1.376h-13.536l-.736-2.88h10.112l-.544.608v-.64a2.684 2.684 0 0 0-.512-1.408 2.804 2.804 0 0 0-1.12-.992c-.469-.235-1.003-.352-1.6-.352-.832 0-1.547.17-2.144.512-.576.32-1.013.8-1.312 1.44-.299.619-.448 1.387-.448 2.304 0 .939.192 1.76.576 2.464.405.683.981 1.216 1.728 1.6.768.384 1.675.576 2.72.576.725 0 1.365-.107 1.92-.32.576-.213 1.195-.576 1.856-1.088l2.4 3.392a9.578 9.578 0 0 1-2.112 1.408c-.747.363-1.515.63-2.304.8a9.468 9.468 0 0 1-2.304.288Zm16.926-.032c-1.429 0-2.709-.373-3.84-1.12-1.109-.768-1.995-1.813-2.656-3.136-.661-1.344-.992-2.859-.992-4.544 0-1.728.331-3.253.992-4.576.661-1.323 1.568-2.357 2.72-3.104 1.152-.768 2.464-1.152 3.936-1.152.811 0 1.547.117 2.208.352a5.62 5.62 0 0 1 1.792.992 6.03 6.03 0 0 1 1.312 1.44c.363.533.629 1.11.8 1.728l-1.056-.128v-4.032h5.088V49h-5.184v-4.096l1.152-.032a5.461 5.461 0 0 1-.832 1.696 6.29 6.29 0 0 1-1.408 1.408 6.958 6.958 0 0 1-1.856.96 6.648 6.648 0 0 1-2.176.352Zm1.408-4.32c.789 0 1.472-.181 2.048-.544.576-.363 1.024-.875 1.344-1.536.32-.683.48-1.483.48-2.4 0-.917-.16-1.707-.48-2.368-.32-.683-.768-1.205-1.344-1.568-.576-.384-1.259-.576-2.048-.576-.768 0-1.44.192-2.016.576-.555.363-.992.885-1.312 1.568-.32.661-.48 1.45-.48 2.368 0 .917.16 1.717.48 2.4.32.661.757 1.173 1.312 1.536.576.363 1.248.544 2.016.544ZM165.038 49V32.008h4.864l.224 5.536-.96-1.056a6.901 6.901 0 0 1 1.248-2.464 6.97 6.97 0 0 1 2.08-1.728 5.235 5.235 0 0 1 2.528-.64c.384 0 .736.032 1.056.096.341.064.65.139.928.224l-1.408 5.664c-.235-.15-.555-.267-.96-.352a4.526 4.526 0 0 0-1.216-.16c-.47 0-.907.085-1.312.256-.406.15-.747.373-1.024.672-.278.299-.502.65-.672 1.056-.15.405-.224.864-.224 1.376V49h-5.152Zm21.299.32c-1.642 0-3.114-.384-4.416-1.152a8.583 8.583 0 0 1-3.104-3.136c-.746-1.344-1.12-2.859-1.12-4.544 0-1.685.374-3.19 1.12-4.512a8.512 8.512 0 0 1 3.104-3.168c1.302-.768 2.774-1.152 4.416-1.152 1.515 0 2.902.267 4.16.8 1.28.533 2.294 1.28 3.04 2.24l-2.784 3.328a6.532 6.532 0 0 0-1.056-.96 5.034 5.034 0 0 0-1.344-.704 4.635 4.635 0 0 0-1.536-.256c-.81 0-1.525.192-2.144.576a3.719 3.719 0 0 0-1.44 1.536c-.341.661-.512 1.419-.512 2.272 0 .81.171 1.547.512 2.208a4.174 4.174 0 0 0 1.472 1.568c.619.384 1.323.576 2.112.576a5.82 5.82 0 0 0 1.536-.192c.47-.15.896-.363 1.28-.64a5.574 5.574 0 0 0 1.12-1.024l2.752 3.36c-.725.917-1.738 1.643-3.04 2.176-1.28.533-2.656.8-4.128.8Zm9.982-.32V25.32h5.024v10.144l-1.024.384a5.136 5.136 0 0 1 1.248-2.08 7.078 7.078 0 0 1 2.208-1.536 6.475 6.475 0 0 1 2.688-.576c1.28 0 2.357.267 3.232.8.875.512 1.536 1.29 1.984 2.336.448 1.024.672 2.283.672 3.776V49h-5.152V38.984c0-.683-.096-1.248-.288-1.696a1.947 1.947 0 0 0-.896-.992c-.384-.235-.864-.341-1.44-.32a3.42 3.42 0 0 0-1.248.224 2.49 2.49 0 0 0-.992.608 3.1 3.1 0 0 0-.672.896 2.77 2.77 0 0 0-.224 1.12V49h-5.12ZM19.664 49V31.4h-6.656v-4.8H31.92v4.8h-6.816V49h-5.44Zm15.561 0V25.32h5.024v10.144l-1.024.384a5.13 5.13 0 0 1 1.248-2.08 7.071 7.071 0 0 1 2.208-1.536 6.478 6.478 0 0 1 2.688-.576c1.28 0 2.358.267 3.232.8.875.512 1.536 1.29 1.984 2.336.448 1.024.672 2.283.672 3.776V49h-5.152V38.984c0-.683-.096-1.248-.288-1.696a1.945 1.945 0 0 0-.896-.992c-.384-.235-.864-.341-1.44-.32a3.42 3.42 0 0 0-1.248.224 2.5 2.5 0 0 0-.992.608 3.09 3.09 0 0 0-.672.896c-.15.341-.224.715-.224 1.12V49h-5.12Zm28.409.32c-1.878 0-3.51-.373-4.896-1.12-1.387-.768-2.464-1.803-3.232-3.104-.768-1.323-1.152-2.827-1.152-4.512 0-1.301.213-2.496.64-3.584a8.366 8.366 0 0 1 1.792-2.816 7.722 7.722 0 0 1 2.72-1.856c1.066-.448 2.229-.672 3.488-.672 1.194 0 2.282.213 3.264.64a7.63 7.63 0 0 1 2.592 1.792 7.855 7.855 0 0 1 1.664 2.72c.384 1.045.554 2.187.512 3.424l-.032 1.376H57.458l-.736-2.88h10.112l-.544.608v-.64a2.683 2.683 0 0 0-.512-1.408 2.803 2.803 0 0 0-1.12-.992c-.47-.235-1.003-.352-1.6-.352-.832 0-1.547.17-2.144.512-.576.32-1.014.8-1.312 1.44-.299.619-.448 1.387-.448 2.304 0 .939.192 1.76.576 2.464.405.683.981 1.216 1.728 1.6.768.384 1.674.576 2.72.576.725 0 1.365-.107 1.92-.32.576-.213 1.194-.576 1.856-1.088l2.4 3.392a9.592 9.592 0 0 1-2.112 1.408c-.747.363-1.515.63-2.304.8a9.468 9.468 0 0 1-2.304.288ZM248.05 49V26.6h9.664c1.408 0 2.656.32 3.744.96a7.036 7.036 0 0 1 2.624 2.624c.662 1.11.992 2.357.992 3.744 0 1.45-.33 2.752-.992 3.904a7.206 7.206 0 0 1-2.624 2.688c-1.088.661-2.336.992-3.744.992h-4.224V49h-5.44Zm5.344-12.256h3.552c.47 0 .896-.117 1.28-.352s.694-.555.928-.96c.235-.405.352-.875.352-1.408 0-.555-.117-1.024-.352-1.408a2.486 2.486 0 0 0-.928-.896 2.59 2.59 0 0 0-1.28-.32h-3.552v5.344ZM268.694 49V32.008h4.864l.224 5.536-.96-1.056a6.901 6.901 0 0 1 1.248-2.464 6.982 6.982 0 0 1 2.08-1.728 5.235 5.235 0 0 1 2.528-.64c.384 0 .736.032 1.056.096.341.064.651.139.928.224l-1.408 5.664c-.235-.15-.555-.267-.96-.352a4.52 4.52 0 0 0-1.216-.16 3.34 3.34 0 0 0-1.312.256c-.405.15-.747.373-1.024.672-.277.299-.501.65-.672 1.056a3.969 3.969 0 0 0-.224 1.376V49h-5.152Zm21.844.32c-1.771 0-3.35-.384-4.736-1.152a8.845 8.845 0 0 1-3.264-3.136c-.79-1.323-1.184-2.837-1.184-4.544 0-1.707.394-3.221 1.184-4.544a8.845 8.845 0 0 1 3.264-3.136c1.386-.768 2.965-1.152 4.736-1.152 1.77 0 3.338.384 4.704 1.152 1.386.768 2.474 1.813 3.264 3.136.789 1.323 1.184 2.837 1.184 4.544 0 1.707-.395 3.221-1.184 4.544-.79 1.323-1.878 2.368-3.264 3.136-1.366.768-2.934 1.152-4.704 1.152Zm0-4.416c.768 0 1.45-.192 2.048-.576a4.017 4.017 0 0 0 1.408-1.568c.341-.661.501-1.419.48-2.272.021-.853-.139-1.61-.48-2.272-.342-.683-.811-1.216-1.408-1.6-.598-.384-1.28-.576-2.048-.576s-1.462.192-2.08.576c-.598.384-1.067.917-1.408 1.6-.342.661-.502 1.419-.48 2.272-.022.853.138 1.61.48 2.272.341.661.81 1.184 1.408 1.568a3.862 3.862 0 0 0 2.08.576Z"/>
</svg>
